<mxfile host="app.diagrams.net" agent="Mozilla/5.0 (Windows NT 10.0; Win64; x64) AppleWebKit/537.36 (KHTML, like Gecko) Chrome/130.0.0.0 Safari/537.36" version="24.8.3">
  <diagram name="第 1 页" id="UVD6TlpwvgwvJdqBQlHI">
    <mxGraphModel dx="1434" dy="738" grid="1" gridSize="10" guides="1" tooltips="1" connect="1" arrows="1" fold="1" page="1" pageScale="1" pageWidth="827" pageHeight="1169" math="0" shadow="0">
      <root>
        <mxCell id="0" />
        <mxCell id="1" parent="0" />
        <mxCell id="pV85LqIiL528oviQ5pPH-1" value="&lt;article data-content=&quot;[{&amp;quot;type&amp;quot;:&amp;quot;block&amp;quot;,&amp;quot;id&amp;quot;:&amp;quot;aEuA-1730951918483&amp;quot;,&amp;quot;name&amp;quot;:&amp;quot;paragraph&amp;quot;,&amp;quot;data&amp;quot;:{},&amp;quot;nodes&amp;quot;:[{&amp;quot;type&amp;quot;:&amp;quot;text&amp;quot;,&amp;quot;id&amp;quot;:&amp;quot;JCrA-1730877687863&amp;quot;,&amp;quot;leaves&amp;quot;:[{&amp;quot;text&amp;quot;:&amp;quot;owner&amp;quot;,&amp;quot;marks&amp;quot;:[]}]}]}]&quot;&gt;&lt;div style=&quot;white-space-collapse: preserve; line-height: 1.75; font-size: 14px; text-align: left;&quot;&gt;owner&lt;/div&gt;&lt;/article&gt;" style="shape=umlLifeline;perimeter=lifelinePerimeter;whiteSpace=wrap;html=1;container=1;dropTarget=0;collapsible=0;recursiveResize=0;outlineConnect=0;portConstraint=eastwest;newEdgeStyle={&quot;curved&quot;:0,&quot;rounded&quot;:0};" parent="1" vertex="1">
          <mxGeometry x="670" y="160" width="100" height="300" as="geometry" />
        </mxCell>
        <mxCell id="pV85LqIiL528oviQ5pPH-2" value="&lt;article data-content=&quot;[{&amp;quot;type&amp;quot;:&amp;quot;block&amp;quot;,&amp;quot;id&amp;quot;:&amp;quot;F44P-1730951996531&amp;quot;,&amp;quot;name&amp;quot;:&amp;quot;paragraph&amp;quot;,&amp;quot;data&amp;quot;:{},&amp;quot;nodes&amp;quot;:[{&amp;quot;type&amp;quot;:&amp;quot;text&amp;quot;,&amp;quot;id&amp;quot;:&amp;quot;avoz-1730877687871&amp;quot;,&amp;quot;leaves&amp;quot;:[{&amp;quot;text&amp;quot;:&amp;quot;requestor&amp;quot;,&amp;quot;marks&amp;quot;:[]}]}]}]&quot;&gt;&lt;div style=&quot;white-space-collapse: preserve; line-height: 1.75; font-size: 14px; text-align: left;&quot;&gt;requestor&lt;/div&gt;&lt;/article&gt;" style="shape=umlLifeline;perimeter=lifelinePerimeter;whiteSpace=wrap;html=1;container=1;dropTarget=0;collapsible=0;recursiveResize=0;outlineConnect=0;portConstraint=eastwest;newEdgeStyle={&quot;curved&quot;:0,&quot;rounded&quot;:0};" parent="1" vertex="1">
          <mxGeometry x="90" y="160" width="100" height="300" as="geometry" />
        </mxCell>
        <mxCell id="pV85LqIiL528oviQ5pPH-5" value="server" style="shape=umlLifeline;perimeter=lifelinePerimeter;whiteSpace=wrap;html=1;container=1;dropTarget=0;collapsible=0;recursiveResize=0;outlineConnect=0;portConstraint=eastwest;newEdgeStyle={&quot;curved&quot;:0,&quot;rounded&quot;:0};" parent="1" vertex="1">
          <mxGeometry x="380" y="160" width="100" height="300" as="geometry" />
        </mxCell>
        <mxCell id="pV85LqIiL528oviQ5pPH-8" value="&lt;article data-content=&quot;[{&amp;quot;type&amp;quot;:&amp;quot;block&amp;quot;,&amp;quot;id&amp;quot;:&amp;quot;3SFj-1730957939369&amp;quot;,&amp;quot;name&amp;quot;:&amp;quot;paragraph&amp;quot;,&amp;quot;data&amp;quot;:{},&amp;quot;nodes&amp;quot;:[{&amp;quot;type&amp;quot;:&amp;quot;text&amp;quot;,&amp;quot;id&amp;quot;:&amp;quot;avoz-1730877687871&amp;quot;,&amp;quot;leaves&amp;quot;:[{&amp;quot;text&amp;quot;:&amp;quot;ConvertSelection&amp;quot;,&amp;quot;marks&amp;quot;:[{&amp;quot;type&amp;quot;:&amp;quot;backgroundColor&amp;quot;,&amp;quot;value&amp;quot;:&amp;quot;rgba(27,&amp;nbsp;31,&amp;nbsp;35,&amp;nbsp;0.05)&amp;quot;},{&amp;quot;type&amp;quot;:&amp;quot;fontSize&amp;quot;,&amp;quot;value&amp;quot;:12},{&amp;quot;type&amp;quot;:&amp;quot;fontFamily&amp;quot;,&amp;quot;value&amp;quot;:&amp;quot;Courier&amp;nbsp;New&amp;quot;}]}]}]}]&quot;&gt;&lt;div style=&quot;white-space:pre-wrap;line-height:1.75;font-size:14px;text-align:left;&quot;&gt;&lt;span style=&quot;background-color: rgba(27, 31, 35, 0.05);font-size: 12px;font-family: Courier New;&quot;&gt;ConvertSelection&lt;/span&gt;&lt;/div&gt;&lt;/article&gt;" style="html=1;verticalAlign=bottom;endArrow=block;curved=0;rounded=0;" parent="1" edge="1">
          <mxGeometry width="80" relative="1" as="geometry">
            <mxPoint x="139.5" y="260" as="sourcePoint" />
            <mxPoint x="429.5" y="260" as="targetPoint" />
          </mxGeometry>
        </mxCell>
        <mxCell id="pV85LqIiL528oviQ5pPH-9" value="&lt;article data-content=&quot;[{&amp;quot;type&amp;quot;:&amp;quot;block&amp;quot;,&amp;quot;id&amp;quot;:&amp;quot;3SFj-1730957939369&amp;quot;,&amp;quot;name&amp;quot;:&amp;quot;paragraph&amp;quot;,&amp;quot;data&amp;quot;:{},&amp;quot;nodes&amp;quot;:[{&amp;quot;type&amp;quot;:&amp;quot;text&amp;quot;,&amp;quot;id&amp;quot;:&amp;quot;avoz-1730877687871&amp;quot;,&amp;quot;leaves&amp;quot;:[{&amp;quot;text&amp;quot;:&amp;quot;ConvertSelection&amp;quot;,&amp;quot;marks&amp;quot;:[{&amp;quot;type&amp;quot;:&amp;quot;backgroundColor&amp;quot;,&amp;quot;value&amp;quot;:&amp;quot;rgba(27,&amp;nbsp;31,&amp;nbsp;35,&amp;nbsp;0.05)&amp;quot;},{&amp;quot;type&amp;quot;:&amp;quot;fontSize&amp;quot;,&amp;quot;value&amp;quot;:12},{&amp;quot;type&amp;quot;:&amp;quot;fontFamily&amp;quot;,&amp;quot;value&amp;quot;:&amp;quot;Courier&amp;nbsp;New&amp;quot;}]}]}]}]&quot;&gt;&lt;div style=&quot;line-height: 1.75; text-align: left;&quot;&gt;&lt;article style=&quot;&quot; data-content=&quot;[{&amp;quot;type&amp;quot;:&amp;quot;block&amp;quot;,&amp;quot;id&amp;quot;:&amp;quot;Torq-1730957968869&amp;quot;,&amp;quot;name&amp;quot;:&amp;quot;paragraph&amp;quot;,&amp;quot;data&amp;quot;:{},&amp;quot;nodes&amp;quot;:[{&amp;quot;type&amp;quot;:&amp;quot;text&amp;quot;,&amp;quot;id&amp;quot;:&amp;quot;D3OK-1730877687873&amp;quot;,&amp;quot;leaves&amp;quot;:[{&amp;quot;text&amp;quot;:&amp;quot;SelectionRequest&amp;quot;,&amp;quot;marks&amp;quot;:[{&amp;quot;type&amp;quot;:&amp;quot;backgroundColor&amp;quot;,&amp;quot;value&amp;quot;:&amp;quot;rgba(27,&amp;nbsp;31,&amp;nbsp;35,&amp;nbsp;0.05)&amp;quot;},{&amp;quot;type&amp;quot;:&amp;quot;fontSize&amp;quot;,&amp;quot;value&amp;quot;:12},{&amp;quot;type&amp;quot;:&amp;quot;fontFamily&amp;quot;,&amp;quot;value&amp;quot;:&amp;quot;Courier&amp;nbsp;New&amp;quot;}]}]}]}]&quot;&gt;&lt;div style=&quot;line-height: 1.75;&quot;&gt;&lt;span style=&quot;font-size: 12px; white-space: pre-wrap; background-color: rgba(27, 31, 35, 0.05); font-family: &amp;quot;Courier New&amp;quot;;&quot;&gt;SelectionRequest/&lt;/span&gt;&lt;font face=&quot;Courier New&quot;&gt;&lt;span style=&quot;font-size: 12px; white-space: pre-wrap;&quot;&gt;SelectionClear&lt;/span&gt;&lt;/font&gt;&lt;/div&gt;&lt;/article&gt;&lt;/div&gt;&lt;/article&gt;" style="html=1;verticalAlign=bottom;endArrow=block;curved=0;rounded=0;" parent="1" edge="1">
          <mxGeometry width="80" relative="1" as="geometry">
            <mxPoint x="430" y="290" as="sourcePoint" />
            <mxPoint x="720" y="290" as="targetPoint" />
          </mxGeometry>
        </mxCell>
        <mxCell id="pV85LqIiL528oviQ5pPH-10" value="&lt;article data-content=&quot;[{&amp;quot;type&amp;quot;:&amp;quot;block&amp;quot;,&amp;quot;id&amp;quot;:&amp;quot;j9ZI-1730958037897&amp;quot;,&amp;quot;name&amp;quot;:&amp;quot;paragraph&amp;quot;,&amp;quot;data&amp;quot;:{},&amp;quot;nodes&amp;quot;:[{&amp;quot;type&amp;quot;:&amp;quot;text&amp;quot;,&amp;quot;id&amp;quot;:&amp;quot;Ull5-1730877687875&amp;quot;,&amp;quot;leaves&amp;quot;:[{&amp;quot;text&amp;quot;:&amp;quot;ChangeProperty&amp;quot;,&amp;quot;marks&amp;quot;:[{&amp;quot;type&amp;quot;:&amp;quot;backgroundColor&amp;quot;,&amp;quot;value&amp;quot;:&amp;quot;rgba(27,&amp;nbsp;31,&amp;nbsp;35,&amp;nbsp;0.05)&amp;quot;},{&amp;quot;type&amp;quot;:&amp;quot;fontSize&amp;quot;,&amp;quot;value&amp;quot;:12},{&amp;quot;type&amp;quot;:&amp;quot;fontFamily&amp;quot;,&amp;quot;value&amp;quot;:&amp;quot;Courier&amp;nbsp;New&amp;quot;}]}]}]}]&quot;&gt;&lt;div style=&quot;white-space:pre-wrap;line-height:1.75;font-size:14px;text-align:left;&quot;&gt;&lt;span style=&quot;background-color: rgba(27, 31, 35, 0.05);font-size: 12px;font-family: Courier New;&quot;&gt;ChangeProperty&lt;/span&gt;&lt;/div&gt;&lt;/article&gt;" style="html=1;verticalAlign=bottom;endArrow=open;dashed=1;endSize=8;curved=0;rounded=0;" parent="1" edge="1">
          <mxGeometry relative="1" as="geometry">
            <mxPoint x="719.5" y="330" as="sourcePoint" />
            <mxPoint x="430" y="330" as="targetPoint" />
          </mxGeometry>
        </mxCell>
        <mxCell id="pV85LqIiL528oviQ5pPH-11" value="&lt;article data-content=&quot;[{&amp;quot;type&amp;quot;:&amp;quot;block&amp;quot;,&amp;quot;id&amp;quot;:&amp;quot;j9ZI-1730958037897&amp;quot;,&amp;quot;name&amp;quot;:&amp;quot;paragraph&amp;quot;,&amp;quot;data&amp;quot;:{},&amp;quot;nodes&amp;quot;:[{&amp;quot;type&amp;quot;:&amp;quot;text&amp;quot;,&amp;quot;id&amp;quot;:&amp;quot;Ull5-1730877687875&amp;quot;,&amp;quot;leaves&amp;quot;:[{&amp;quot;text&amp;quot;:&amp;quot;ChangeProperty&amp;quot;,&amp;quot;marks&amp;quot;:[{&amp;quot;type&amp;quot;:&amp;quot;backgroundColor&amp;quot;,&amp;quot;value&amp;quot;:&amp;quot;rgba(27,&amp;nbsp;31,&amp;nbsp;35,&amp;nbsp;0.05)&amp;quot;},{&amp;quot;type&amp;quot;:&amp;quot;fontSize&amp;quot;,&amp;quot;value&amp;quot;:12},{&amp;quot;type&amp;quot;:&amp;quot;fontFamily&amp;quot;,&amp;quot;value&amp;quot;:&amp;quot;Courier&amp;nbsp;New&amp;quot;}]}]}]}]&quot;&gt;&lt;div style=&quot;white-space:pre-wrap;line-height:1.75;font-size:14px;text-align:left;&quot;&gt;&lt;article data-content=&quot;[{&amp;quot;type&amp;quot;:&amp;quot;block&amp;quot;,&amp;quot;id&amp;quot;:&amp;quot;VEhw-1730959200791&amp;quot;,&amp;quot;name&amp;quot;:&amp;quot;paragraph&amp;quot;,&amp;quot;data&amp;quot;:{},&amp;quot;nodes&amp;quot;:[{&amp;quot;type&amp;quot;:&amp;quot;text&amp;quot;,&amp;quot;id&amp;quot;:&amp;quot;f77g-1730877687877&amp;quot;,&amp;quot;leaves&amp;quot;:[{&amp;quot;text&amp;quot;:&amp;quot;SelectionNotify&amp;quot;,&amp;quot;marks&amp;quot;:[{&amp;quot;type&amp;quot;:&amp;quot;backgroundColor&amp;quot;,&amp;quot;value&amp;quot;:&amp;quot;rgba(27,&amp;nbsp;31,&amp;nbsp;35,&amp;nbsp;0.05)&amp;quot;},{&amp;quot;type&amp;quot;:&amp;quot;fontSize&amp;quot;,&amp;quot;value&amp;quot;:12},{&amp;quot;type&amp;quot;:&amp;quot;fontFamily&amp;quot;,&amp;quot;value&amp;quot;:&amp;quot;Courier&amp;nbsp;New&amp;quot;}]}]}]}]&quot;&gt;&lt;div style=&quot;line-height: 1.75;&quot;&gt;&lt;span style=&quot;background-color: rgba(27, 31, 35, 0.05);font-size: 12px;font-family: Courier New;&quot;&gt;SelectionNotify&lt;/span&gt;&lt;/div&gt;&lt;/article&gt;&lt;/div&gt;&lt;/article&gt;" style="html=1;verticalAlign=bottom;endArrow=open;dashed=1;endSize=8;curved=0;rounded=0;" parent="1" edge="1">
          <mxGeometry relative="1" as="geometry">
            <mxPoint x="430" y="420" as="sourcePoint" />
            <mxPoint x="140" y="420" as="targetPoint" />
          </mxGeometry>
        </mxCell>
        <mxCell id="pV85LqIiL528oviQ5pPH-12" value="&lt;article data-content=&quot;[{&amp;quot;type&amp;quot;:&amp;quot;block&amp;quot;,&amp;quot;id&amp;quot;:&amp;quot;3SFj-1730957939369&amp;quot;,&amp;quot;name&amp;quot;:&amp;quot;paragraph&amp;quot;,&amp;quot;data&amp;quot;:{},&amp;quot;nodes&amp;quot;:[{&amp;quot;type&amp;quot;:&amp;quot;text&amp;quot;,&amp;quot;id&amp;quot;:&amp;quot;avoz-1730877687871&amp;quot;,&amp;quot;leaves&amp;quot;:[{&amp;quot;text&amp;quot;:&amp;quot;ConvertSelection&amp;quot;,&amp;quot;marks&amp;quot;:[{&amp;quot;type&amp;quot;:&amp;quot;backgroundColor&amp;quot;,&amp;quot;value&amp;quot;:&amp;quot;rgba(27,&amp;nbsp;31,&amp;nbsp;35,&amp;nbsp;0.05)&amp;quot;},{&amp;quot;type&amp;quot;:&amp;quot;fontSize&amp;quot;,&amp;quot;value&amp;quot;:12},{&amp;quot;type&amp;quot;:&amp;quot;fontFamily&amp;quot;,&amp;quot;value&amp;quot;:&amp;quot;Courier&amp;nbsp;New&amp;quot;}]}]}]}]&quot;&gt;&lt;div style=&quot;white-space:pre-wrap;line-height:1.75;font-size:14px;text-align:left;&quot;&gt;&lt;article data-content=&quot;[{&amp;quot;type&amp;quot;:&amp;quot;block&amp;quot;,&amp;quot;id&amp;quot;:&amp;quot;d8XY-1730960666272&amp;quot;,&amp;quot;name&amp;quot;:&amp;quot;paragraph&amp;quot;,&amp;quot;data&amp;quot;:{},&amp;quot;nodes&amp;quot;:[{&amp;quot;type&amp;quot;:&amp;quot;text&amp;quot;,&amp;quot;id&amp;quot;:&amp;quot;1brN-1730877687879&amp;quot;,&amp;quot;leaves&amp;quot;:[{&amp;quot;text&amp;quot;:&amp;quot;GetProperty&amp;quot;,&amp;quot;marks&amp;quot;:[{&amp;quot;type&amp;quot;:&amp;quot;fontSize&amp;quot;,&amp;quot;value&amp;quot;:12}]}]}]}]&quot;&gt;&lt;div style=&quot;line-height: 1.75;&quot;&gt;&lt;span style=&quot;font-size: 12px;&quot;&gt;GetProperty&lt;/span&gt;&lt;/div&gt;&lt;/article&gt;&lt;/div&gt;&lt;/article&gt;" style="html=1;verticalAlign=bottom;endArrow=block;curved=0;rounded=0;" parent="1" edge="1">
          <mxGeometry width="80" relative="1" as="geometry">
            <mxPoint x="140" y="450" as="sourcePoint" />
            <mxPoint x="430" y="450" as="targetPoint" />
            <mxPoint as="offset" />
          </mxGeometry>
        </mxCell>
        <mxCell id="YF2UzFrRLSaru3jmtdkG-1" value="&lt;article data-content=&quot;[{&amp;quot;type&amp;quot;:&amp;quot;block&amp;quot;,&amp;quot;id&amp;quot;:&amp;quot;3SFj-1730957939369&amp;quot;,&amp;quot;name&amp;quot;:&amp;quot;paragraph&amp;quot;,&amp;quot;data&amp;quot;:{},&amp;quot;nodes&amp;quot;:[{&amp;quot;type&amp;quot;:&amp;quot;text&amp;quot;,&amp;quot;id&amp;quot;:&amp;quot;avoz-1730877687871&amp;quot;,&amp;quot;leaves&amp;quot;:[{&amp;quot;text&amp;quot;:&amp;quot;ConvertSelection&amp;quot;,&amp;quot;marks&amp;quot;:[{&amp;quot;type&amp;quot;:&amp;quot;backgroundColor&amp;quot;,&amp;quot;value&amp;quot;:&amp;quot;rgba(27,&amp;nbsp;31,&amp;nbsp;35,&amp;nbsp;0.05)&amp;quot;},{&amp;quot;type&amp;quot;:&amp;quot;fontSize&amp;quot;,&amp;quot;value&amp;quot;:12},{&amp;quot;type&amp;quot;:&amp;quot;fontFamily&amp;quot;,&amp;quot;value&amp;quot;:&amp;quot;Courier&amp;nbsp;New&amp;quot;}]}]}]}]&quot;&gt;&lt;div style=&quot;line-height: 1.75; text-align: left;&quot;&gt;&lt;font face=&quot;Courier New&quot;&gt;&lt;span style=&quot;font-size: 12px; white-space: pre-wrap;&quot;&gt;SetSelectionOwner&lt;/span&gt;&lt;/font&gt;&lt;/div&gt;&lt;/article&gt;" style="html=1;verticalAlign=bottom;endArrow=block;curved=0;rounded=0;" edge="1" parent="1">
          <mxGeometry width="80" relative="1" as="geometry">
            <mxPoint x="719.5" y="230" as="sourcePoint" />
            <mxPoint x="429.5" y="230" as="targetPoint" />
          </mxGeometry>
        </mxCell>
        <mxCell id="YF2UzFrRLSaru3jmtdkG-2" value="&lt;article data-content=&quot;[{&amp;quot;type&amp;quot;:&amp;quot;block&amp;quot;,&amp;quot;id&amp;quot;:&amp;quot;j9ZI-1730958037897&amp;quot;,&amp;quot;name&amp;quot;:&amp;quot;paragraph&amp;quot;,&amp;quot;data&amp;quot;:{},&amp;quot;nodes&amp;quot;:[{&amp;quot;type&amp;quot;:&amp;quot;text&amp;quot;,&amp;quot;id&amp;quot;:&amp;quot;Ull5-1730877687875&amp;quot;,&amp;quot;leaves&amp;quot;:[{&amp;quot;text&amp;quot;:&amp;quot;ChangeProperty&amp;quot;,&amp;quot;marks&amp;quot;:[{&amp;quot;type&amp;quot;:&amp;quot;backgroundColor&amp;quot;,&amp;quot;value&amp;quot;:&amp;quot;rgba(27,&amp;nbsp;31,&amp;nbsp;35,&amp;nbsp;0.05)&amp;quot;},{&amp;quot;type&amp;quot;:&amp;quot;fontSize&amp;quot;,&amp;quot;value&amp;quot;:12},{&amp;quot;type&amp;quot;:&amp;quot;fontFamily&amp;quot;,&amp;quot;value&amp;quot;:&amp;quot;Courier&amp;nbsp;New&amp;quot;}]}]}]}]&quot;&gt;&lt;div style=&quot;line-height: 1.75; text-align: left;&quot;&gt;&lt;font face=&quot;Courier New&quot;&gt;&lt;span style=&quot;font-size: 12px; white-space: pre-wrap;&quot;&gt;SendEvent&lt;/span&gt;&lt;/font&gt;&lt;/div&gt;&lt;/article&gt;" style="html=1;verticalAlign=bottom;endArrow=open;dashed=1;endSize=8;curved=0;rounded=0;" edge="1" parent="1">
          <mxGeometry relative="1" as="geometry">
            <mxPoint x="719.5" y="380" as="sourcePoint" />
            <mxPoint x="430" y="380" as="targetPoint" />
          </mxGeometry>
        </mxCell>
      </root>
    </mxGraphModel>
  </diagram>
</mxfile>
